<?xml version="1.0" encoding="UTF-8"?>
<svg xmlns="http://www.w3.org/2000/svg" xmlns:xlink="http://www.w3.org/1999/xlink" width="120pt" height="120pt" viewBox="0 0 120 120" version="1.1">
<g id="surface1">
<path style=" stroke:none;fill-rule:nonzero;fill:rgb(64.705882%,0%,0%);fill-opacity:1;" d="M 81.992188 38.007812 C 79.679688 35.691406 75.925781 35.691406 73.609375 38.007812 L 60 51.636719 L 46.429688 38.007812 C 44.085938 35.804688 40.414062 35.863281 38.140625 38.140625 C 35.863281 40.414062 35.804688 44.085938 38.007812 46.429688 L 51.636719 60 L 38.007812 73.570312 C 35.691406 75.882812 35.691406 79.636719 38.007812 81.953125 C 40.320312 84.265625 44.074219 84.265625 46.390625 81.953125 L 60 68.363281 L 73.570312 81.992188 C 75.882812 84.308594 79.636719 84.308594 81.953125 81.992188 C 84.265625 79.679688 84.265625 75.925781 81.953125 73.609375 L 68.363281 60 L 81.992188 46.429688 C 84.308594 44.117188 84.308594 40.363281 81.992188 38.046875 Z M 101.902344 18.097656 C 87.324219 2.289062 65.328125 -4.382812 44.421875 0.664062 C 23.519531 5.714844 6.992188 21.6875 1.234375 42.410156 C -4.523438 63.128906 1.390625 85.339844 16.695312 100.449219 C 17.167969 100.945312 17.652344 101.429688 18.148438 101.902344 C 40.890625 125.449219 78.410156 126.097656 101.957031 103.359375 C 125.5 80.617188 126.152344 43.09375 103.410156 19.550781 C 102.902344 19.019531 102.398438 18.535156 101.902344 18.097656 Z M 93.550781 93.550781 C 77.558594 109.558594 52.484375 112.039062 33.667969 99.476562 C 14.847656 86.914062 7.523438 62.804688 16.171875 41.898438 C 24.820312 20.988281 47.035156 9.101562 69.230469 13.503906 C 91.421875 17.90625 107.417969 37.371094 107.429688 60 C 107.4375 72.582031 102.445312 84.652344 93.550781 93.550781 Z M 93.550781 93.550781 "/>
</g>
</svg>
