<svg width="306" height="157" viewBox="0 0 306 157" fill="none" xmlns="http://www.w3.org/2000/svg">
<path d="M65.002 105.025C59.2077 105.025 54.0645 104.472 49.5723 103.365C45.0801 102.258 40.6042 100.175 36.1445 97.1152V78.6582H49.377L50.8418 88.1309C51.8835 89.3027 53.7227 90.2956 56.3594 91.1094C58.9961 91.8906 61.877 92.2812 65.002 92.2812C71.61 92.2812 74.9141 89.9701 74.9141 85.3477C74.9141 83.2318 74.1003 81.4414 72.4727 79.9766C70.8451 78.4792 68.013 76.9492 63.9766 75.3867C57.8893 73.4336 52.8926 71.4479 48.9863 69.4297C45.0801 67.4115 42.1667 65.0189 40.2461 62.252C38.3581 59.485 37.4141 56.0508 37.4141 51.9492C37.4141 48.0104 38.5371 44.5762 40.7832 41.6465C43.0293 38.6842 46.1217 36.3568 50.0605 34.6641C53.9993 32.9714 58.5078 32.0762 63.5859 31.9785C69.3802 31.8483 74.5072 32.4342 78.9668 33.7363C83.4264 35.0059 87.3652 36.9427 90.7832 39.5469V56.6855H78.0879L76.0859 47.1641C74.9792 46.6107 73.4004 46.1061 71.3496 45.6504C69.2988 45.1947 67.1178 44.9668 64.8066 44.9668C61.8444 44.9668 59.3867 45.5527 57.4336 46.7246C55.4805 47.8965 54.5039 49.6543 54.5039 51.998C54.5039 53.2676 54.8783 54.4069 55.627 55.416C56.3757 56.3926 57.694 57.3854 59.582 58.3945C61.4701 59.3711 64.1068 60.5104 67.4922 61.8125C75.5651 64.1888 81.6849 67.1673 85.8516 70.748C90.0508 74.2962 92.1504 79.1302 92.1504 85.25C92.1504 89.4492 91.0111 93.0299 88.7324 95.9922C86.4538 98.9219 83.2799 101.168 79.2109 102.73C75.1419 104.26 70.4056 105.025 65.002 105.025Z" fill="#002284"/>
<path d="M36.1445 97.1152H33.1445V98.6951L34.4472 99.5889L36.1445 97.1152ZM36.1445 78.6582V75.6582H33.1445V78.6582H36.1445ZM49.377 78.6582L52.3417 78.1997L51.9487 75.6582H49.377V78.6582ZM50.8418 88.1309L47.877 88.5893L48.0122 89.4631L48.5996 90.124L50.8418 88.1309ZM56.3594 91.1094L55.4746 93.9759L55.4908 93.9809L55.5071 93.9858L56.3594 91.1094ZM72.4727 79.9766L70.4415 82.1844L70.4536 82.1955L70.4658 82.2064L72.4727 79.9766ZM63.9766 75.3867L65.0595 72.589L64.9772 72.5571L64.8931 72.5302L63.9766 75.3867ZM40.2461 62.252L37.768 63.9429L37.7748 63.9528L37.7816 63.9626L40.2461 62.252ZM40.7832 41.6465L43.164 43.4718L43.1689 43.4654L43.1737 43.4591L40.7832 41.6465ZM50.0605 34.6641L48.876 31.9078L50.0605 34.6641ZM63.5859 31.9785L63.6436 34.978L63.6533 34.9778L63.5859 31.9785ZM78.9668 33.7363L78.126 36.6161L78.1357 36.6189L78.1454 36.6217L78.9668 33.7363ZM90.7832 39.5469H93.7832V38.0611L92.6013 37.1606L90.7832 39.5469ZM90.7832 56.6855V59.6855H93.7832V56.6855H90.7832ZM78.0879 56.6855L75.1521 57.3028L75.6531 59.6855H78.0879V56.6855ZM76.0859 47.1641L79.0217 46.5468L78.7236 45.1288L77.4276 44.4808L76.0859 47.1641ZM55.627 55.416L53.2177 57.2036L53.2317 57.2225L53.2461 57.2413L55.627 55.416ZM59.582 58.3945L58.1679 61.0403L58.1858 61.0499L58.2038 61.0592L59.582 58.3945ZM67.4922 61.8125L66.4153 64.6125L66.5286 64.6561L66.6451 64.6904L67.4922 61.8125ZM85.8516 70.748L83.8963 73.0233L83.9058 73.0315L83.9153 73.0396L85.8516 70.748ZM88.7324 95.9922L91.1005 97.834L91.1054 97.8277L91.1103 97.8213L88.7324 95.9922ZM79.2109 102.73L80.2668 105.539L80.2766 105.535L80.2864 105.531L79.2109 102.73ZM65.002 102.025C59.3917 102.025 54.4971 101.489 50.2899 100.452L48.8546 106.278C53.6318 107.455 59.0237 108.025 65.002 108.025V102.025ZM50.2899 100.452C46.2018 99.4451 42.0533 97.5312 37.8418 94.6415L34.4472 99.5889C39.155 102.819 43.9584 105.072 48.8546 106.278L50.2899 100.452ZM39.1445 97.1152V78.6582H33.1445V97.1152H39.1445ZM36.1445 81.6582H49.377V75.6582H36.1445V81.6582ZM46.4122 79.1167L47.877 88.5893L53.8066 87.6724L52.3417 78.1997L46.4122 79.1167ZM48.5996 90.124C50.1879 91.9109 52.6603 93.1073 55.4746 93.9759L57.2441 88.2428C54.785 87.4838 53.579 86.6946 53.084 86.1378L48.5996 90.124ZM55.5071 93.9858C58.4552 94.8593 61.627 95.2812 65.002 95.2812V89.2812C62.1269 89.2812 59.537 88.922 57.2116 88.233L55.5071 93.9858ZM65.002 95.2812C68.5637 95.2812 71.7698 94.675 74.1556 93.0061C76.7368 91.2006 77.9141 88.4726 77.9141 85.3477H71.9141C71.9141 86.8451 71.4393 87.584 70.7165 88.0896C69.7983 88.7319 68.0483 89.2812 65.002 89.2812V95.2812ZM77.9141 85.3477C77.9141 82.3482 76.7142 79.7579 74.4796 77.7467L70.4658 82.2064C71.4863 83.1249 71.9141 84.1154 71.9141 85.3477H77.9141ZM74.5038 77.7688C72.4462 75.8757 69.1763 74.1826 65.0595 72.589L62.8936 78.1844C66.8497 79.7158 69.2439 81.0826 70.4415 82.1844L74.5038 77.7688ZM64.8931 72.5302C58.9 70.6072 54.0718 68.6804 50.3634 66.7644L47.6093 72.095C51.7134 74.2154 56.8786 76.26 63.06 78.2433L64.8931 72.5302ZM50.3634 66.7644C46.7636 64.9045 44.2798 62.802 42.7106 60.5413L37.7816 63.9626C40.0535 67.2357 43.3965 69.9184 47.6093 72.095L50.3634 66.7644ZM42.7242 60.561C41.2459 58.3947 40.4141 55.5844 40.4141 51.9492H34.4141C34.4141 56.5172 35.4702 60.5754 37.768 63.9429L42.7242 60.561ZM40.4141 51.9492C40.4141 48.6232 41.3473 45.8415 43.164 43.4718L38.4024 39.8212C35.727 43.3109 34.4141 47.3976 34.4141 51.9492H40.4141ZM43.1737 43.4591C45.0609 40.9701 47.7092 38.9399 51.2451 37.4203L48.876 31.9078C44.5343 33.7737 40.9977 36.3984 38.3927 39.8339L43.1737 43.4591ZM51.2451 37.4203C54.7681 35.9063 58.883 35.0695 63.6436 34.978L63.5283 28.9791C58.1326 29.0828 53.2306 30.0364 48.876 31.9078L51.2451 37.4203ZM63.6533 34.9778C69.2132 34.8528 74.0236 35.4183 78.126 36.6161L79.8076 30.8566C74.9907 29.4502 69.5473 28.8438 63.5185 28.9793L63.6533 34.9778ZM78.1454 36.6217C82.2732 37.7968 85.8681 39.5736 88.9651 41.9332L92.6013 37.1606C88.8624 34.3118 84.5796 32.215 79.7882 30.851L78.1454 36.6217ZM87.7832 39.5469V56.6855H93.7832V39.5469H87.7832ZM90.7832 53.6855H78.0879V59.6855H90.7832V53.6855ZM81.0237 56.0683L79.0217 46.5468L73.1501 47.7813L75.1521 57.3028L81.0237 56.0683ZM77.4276 44.4808C76.0015 43.7678 74.1492 43.1993 72.0004 42.7218L70.6988 48.579C72.6515 49.0129 73.9568 49.4536 74.7443 49.8473L77.4276 44.4808ZM72.0004 42.7218C69.7159 42.2142 67.3152 41.9668 64.8066 41.9668V47.9668C66.9205 47.9668 68.8818 48.1752 70.6988 48.579L72.0004 42.7218ZM64.8066 41.9668C61.4606 41.9668 58.4298 42.6283 55.8901 44.1521L58.9771 49.2971C60.3437 48.4771 62.2282 47.9668 64.8066 47.9668V41.9668ZM55.8901 44.1521C53.0017 45.8852 51.5039 48.638 51.5039 51.998H57.5039C57.5039 50.6706 57.9592 49.9078 58.9771 49.2971L55.8901 44.1521ZM51.5039 51.998C51.5039 53.9042 52.0811 55.6717 53.2177 57.2036L58.0362 53.6285C57.6754 53.1421 57.5039 52.631 57.5039 51.998H51.5039ZM53.2461 57.2413C54.3805 58.7209 56.1416 59.9573 58.1679 61.0403L60.9962 55.7487C59.2464 54.8135 58.3708 54.0643 58.0078 53.5907L53.2461 57.2413ZM58.2038 61.0592C60.2342 62.1094 62.9878 63.2943 66.4153 64.6125L68.5691 59.0125C65.2257 57.7265 62.7059 56.6328 60.9603 55.7299L58.2038 61.0592ZM66.6451 64.6904C74.5057 67.0042 80.1774 69.8274 83.8963 73.0233L87.8069 68.4728C83.1924 64.5072 76.6245 61.3734 68.3393 58.9346L66.6451 64.6904ZM83.9153 73.0396C87.3585 75.9489 89.1504 79.9008 89.1504 85.25H95.1504C95.1504 78.3596 92.7431 72.6436 87.7878 68.4565L83.9153 73.0396ZM89.1504 85.25C89.1504 88.8736 88.1803 91.7896 86.3545 94.1631L91.1103 97.8213C93.8418 94.2703 95.1504 90.0248 95.1504 85.25H89.1504ZM86.3644 94.1504C84.4758 96.5785 81.7844 98.5287 78.1355 99.9299L80.2864 105.531C84.7755 103.807 88.4317 101.265 91.1005 97.834L86.3644 94.1504ZM78.1551 99.9224C74.4945 101.299 70.1294 102.025 65.002 102.025V108.025C70.6818 108.025 75.7893 107.222 80.2668 105.539L78.1551 99.9224Z" fill="#787878"/>
<path d="M92.1895 104V93.9902L99.5625 92.4277V44.5273L92.1895 42.9648V32.9062H126.76C132.424 32.9062 137.339 33.8991 141.506 35.8848C145.673 37.8704 148.879 40.6374 151.125 44.1855C153.404 47.7012 154.543 51.8027 154.543 56.4902C154.543 61.1777 153.404 65.2793 151.125 68.7949C148.879 72.3105 145.673 75.0449 141.506 76.998C137.339 78.9512 132.424 79.9277 126.76 79.9277H116.701V92.4277L124.074 93.9902V104H92.1895ZM116.701 66.793H126.76C130.243 66.793 132.88 65.849 134.67 63.9609C136.493 62.0404 137.404 59.5827 137.404 56.5879C137.404 53.4954 136.493 50.9564 134.67 48.9707C132.88 46.985 130.243 45.9922 126.76 45.9922H116.701V66.793Z" fill="#002284"/>
<path d="M92.1895 104H89.1895V107H92.1895V104ZM92.1895 93.9902L91.5675 91.0554L89.1895 91.5594V93.9902H92.1895ZM99.5625 92.4277L100.184 95.3626L102.562 94.8586V92.4277H99.5625ZM99.5625 44.5273H102.562V42.0965L100.184 41.5925L99.5625 44.5273ZM92.1895 42.9648H89.1895V45.3957L91.5675 45.8997L92.1895 42.9648ZM92.1895 32.9062V29.9062H89.1895V32.9062H92.1895ZM141.506 35.8848L142.796 33.1766L141.506 35.8848ZM151.125 44.1855L148.59 45.7901L148.599 45.8037L148.608 45.8172L151.125 44.1855ZM151.125 68.7949L148.608 67.1632L148.602 67.1715L148.597 67.1798L151.125 68.7949ZM116.701 79.9277V76.9277H113.701V79.9277H116.701ZM116.701 92.4277H113.701V94.8586L116.079 95.3626L116.701 92.4277ZM124.074 93.9902H127.074V91.5594L124.696 91.0554L124.074 93.9902ZM124.074 104V107H127.074V104H124.074ZM116.701 66.793H113.701V69.793H116.701V66.793ZM134.67 63.9609L132.494 61.8957L132.493 61.8967L134.67 63.9609ZM134.67 48.9707L132.442 50.9796L132.451 50.9896L132.46 50.9995L134.67 48.9707ZM116.701 45.9922V42.9922H113.701V45.9922H116.701ZM95.1895 104V93.9902H89.1895V104H95.1895ZM92.8114 96.9251L100.184 95.3626L98.9406 89.4929L91.5675 91.0554L92.8114 96.9251ZM102.562 92.4277V44.5273H96.5625V92.4277H102.562ZM100.184 41.5925L92.8114 40.03L91.5675 45.8997L98.9406 47.4622L100.184 41.5925ZM95.1895 42.9648V32.9062H89.1895V42.9648H95.1895ZM92.1895 35.9062H126.76V29.9062H92.1895V35.9062ZM126.76 35.9062C132.077 35.9062 136.533 36.838 140.215 38.593L142.796 33.1766C138.146 30.9602 132.771 29.9062 126.76 29.9062V35.9062ZM140.215 38.593C143.924 40.3603 146.676 42.7665 148.59 45.7901L153.66 42.5809C151.082 38.5082 147.421 35.3805 142.796 33.1766L140.215 38.593ZM148.608 45.8172C150.535 48.7905 151.543 52.3107 151.543 56.4902H157.543C157.543 51.2948 156.273 46.6118 153.642 42.5539L148.608 45.8172ZM151.543 56.4902C151.543 60.6698 150.535 64.19 148.608 67.1632L153.642 70.4266C156.273 66.3686 157.543 61.6857 157.543 56.4902H151.543ZM148.597 67.1798C146.688 70.1684 143.94 72.5438 140.233 74.2817L142.779 79.7144C147.405 77.546 151.07 74.4527 153.653 70.4101L148.597 67.1798ZM140.233 74.2817C136.545 76.01 132.083 76.9277 126.76 76.9277V82.9277C132.765 82.9277 138.133 81.8924 142.779 79.7144L140.233 74.2817ZM126.76 76.9277H116.701V82.9277H126.76V76.9277ZM113.701 79.9277V92.4277H119.701V79.9277H113.701ZM116.079 95.3626L123.452 96.9251L124.696 91.0554L117.323 89.4929L116.079 95.3626ZM121.074 93.9902V104H127.074V93.9902H121.074ZM124.074 101H92.1895V107H124.074V101ZM116.701 69.793H126.76V63.793H116.701V69.793ZM126.76 69.793C130.776 69.793 134.317 68.6927 136.847 66.0252L132.493 61.8967C131.442 63.0052 129.71 63.793 126.76 63.793V69.793ZM136.846 66.0262C139.268 63.474 140.404 60.2424 140.404 56.5879H134.404C134.404 58.923 133.717 60.6068 132.494 61.8957L136.846 66.0262ZM140.404 56.5879C140.404 52.8626 139.286 49.5626 136.88 46.9419L132.46 50.9995C133.7 52.3502 134.404 54.1283 134.404 56.5879H140.404ZM136.898 46.9618C134.379 44.1678 130.82 42.9922 126.76 42.9922V48.9922C129.666 48.9922 131.38 49.8022 132.442 50.9796L136.898 46.9618ZM126.76 42.9922H116.701V48.9922H126.76V42.9922ZM113.701 45.9922V66.793H119.701V45.9922H113.701Z" fill="#787878"/>
<path d="M181 105.025C176.085 105.025 171.56 104.13 167.426 102.34C163.324 100.517 159.76 97.9779 156.732 94.7227C153.705 91.4674 151.361 87.6589 149.701 83.2969C148.074 78.9023 147.26 74.1335 147.26 68.9902V67.8672C147.26 62.7565 148.074 58.0202 149.701 53.6582C151.361 49.2962 153.689 45.4876 156.684 42.2324C159.711 38.9772 163.275 36.4382 167.377 34.6152C171.479 32.7923 175.987 31.8809 180.902 31.8809C185.72 31.8809 190.196 32.7923 194.33 34.6152C198.464 36.4382 202.077 38.9772 205.17 42.2324C208.295 45.4876 210.72 49.2962 212.445 53.6582C214.171 58.0202 215.033 62.7565 215.033 67.8672V68.9902C215.033 74.1335 214.171 78.9023 212.445 83.2969C210.72 87.6589 208.311 91.4674 205.219 94.7227C202.126 97.9779 198.513 100.517 194.379 102.34C190.245 104.13 185.785 105.025 181 105.025ZM181 92.0371C186.371 92.0371 190.538 89.9375 193.5 85.7383C196.495 81.5065 197.992 75.9238 197.992 68.9902V67.7695C197.992 60.9661 196.495 55.4648 193.5 51.2656C190.505 47.0339 186.306 44.918 180.902 44.918C175.206 44.918 171.023 47.0013 168.354 51.168C165.717 55.3346 164.398 60.8685 164.398 67.7695V68.9902C164.398 75.9564 165.749 81.5391 168.451 85.7383C171.153 89.9375 175.336 92.0371 181 92.0371Z" fill="#002284"/>
<path d="M167.426 102.34L166.207 105.081L166.22 105.087L166.234 105.093L167.426 102.34ZM156.732 94.7227L154.536 96.7657L156.732 94.7227ZM149.701 83.2969L146.888 84.3388L146.893 84.3514L146.897 84.364L149.701 83.2969ZM149.701 53.6582L146.897 52.5911L146.894 52.6002L146.89 52.6094L149.701 53.6582ZM156.684 42.2324L154.487 40.1894L154.481 40.1953L154.476 40.2013L156.684 42.2324ZM194.33 34.6152L193.12 37.3602L194.33 34.6152ZM205.17 42.2324L202.995 44.2987L203 44.3044L203.006 44.31L205.17 42.2324ZM212.445 83.2969L215.235 84.4003L215.238 84.3932L212.445 83.2969ZM205.219 94.7227L207.394 96.7889L205.219 94.7227ZM194.379 102.34L195.571 105.093L195.58 105.089L195.589 105.085L194.379 102.34ZM193.5 85.7383L191.051 84.0053L191.049 84.009L193.5 85.7383ZM193.5 51.2656L191.051 52.9986L191.058 53.0075L193.5 51.2656ZM168.354 51.168L165.827 49.5497L165.823 49.5567L165.818 49.5638L168.354 51.168ZM168.451 85.7383L165.928 87.3615L168.451 85.7383ZM181 102.025C176.457 102.025 172.343 101.2 168.618 99.5869L166.234 105.093C170.777 107.06 175.712 108.025 181 108.025V102.025ZM168.644 99.5984C164.909 97.9383 161.678 95.6355 158.929 92.6796L154.536 96.7657C157.841 100.32 161.74 103.096 166.207 105.081L168.644 99.5984ZM158.929 92.6796C156.178 89.7216 154.035 86.2487 152.505 82.2298L146.897 84.364C148.688 89.069 151.232 93.2133 154.536 96.7657L158.929 92.6796ZM152.514 82.2549C151.022 78.2249 150.26 73.8125 150.26 68.9902H144.26C144.26 74.4545 145.125 79.5798 146.888 84.3388L152.514 82.2549ZM150.26 68.9902V67.8672H144.26V68.9902H150.26ZM150.26 67.8672C150.26 63.0796 151.021 58.7022 152.512 54.707L146.89 52.6094C145.126 57.3382 144.26 62.4334 144.26 67.8672H150.26ZM152.505 54.7253C154.037 50.6997 156.169 47.223 158.891 44.2636L154.476 40.2013C151.209 43.7523 148.686 47.8927 146.897 52.5911L152.505 54.7253ZM158.88 44.2755C161.629 41.3196 164.86 39.0168 168.595 37.3567L166.159 31.8738C161.691 33.8595 157.793 36.6348 154.487 40.1894L158.88 44.2755ZM168.595 37.3567C172.278 35.7199 176.366 34.8809 180.902 34.8809V28.8809C175.608 28.8809 170.679 29.8648 166.159 31.8738L168.595 37.3567ZM180.902 34.8809C185.331 34.8809 189.392 35.7164 193.12 37.3602L195.54 31.8702C191 29.8682 186.109 28.8809 180.902 28.8809V34.8809ZM193.12 37.3602C196.893 39.024 200.178 41.3332 202.995 44.2987L207.345 40.1662C203.977 36.6213 200.036 33.8523 195.54 31.8702L193.12 37.3602ZM203.006 44.31C205.85 47.2731 208.068 50.7473 209.656 54.7616L215.235 52.5548C213.372 47.8451 210.74 43.7022 207.334 40.1548L203.006 44.31ZM209.656 54.7616C211.23 58.742 212.033 63.1003 212.033 67.8672H218.033C218.033 62.4127 217.111 57.2983 215.235 52.5548L209.656 54.7616ZM212.033 67.8672V68.9902H218.033V67.8672H212.033ZM212.033 68.9902C212.033 73.7919 211.229 78.1853 209.653 82.2006L215.238 84.3932C217.112 79.6194 218.033 74.475 218.033 68.9902H212.033ZM209.656 82.1935C208.065 86.2143 205.86 89.6922 203.044 92.6564L207.394 96.7889C210.763 93.2427 213.375 89.1034 215.235 84.4003L209.656 82.1935ZM203.044 92.6564C200.227 95.6219 196.942 97.9311 193.169 99.5949L195.589 105.085C200.084 103.103 204.026 100.334 207.394 96.7889L203.044 92.6564ZM193.187 99.5869C189.452 101.204 185.401 102.025 181 102.025V108.025C186.169 108.025 191.038 107.056 195.571 105.093L193.187 99.5869ZM181 95.0371C187.294 95.0371 192.398 92.5053 195.951 87.4676L191.049 84.009C188.678 87.3697 185.448 89.0371 181 89.0371V95.0371ZM195.949 87.4713C199.405 82.587 200.992 76.3382 200.992 68.9902H194.992C194.992 75.5095 193.584 80.426 191.051 84.0053L195.949 87.4713ZM200.992 68.9902V67.7695H194.992V68.9902H200.992ZM200.992 67.7695C200.992 60.5391 199.4 54.3715 195.942 49.5237L191.058 53.0075C193.59 56.5582 194.992 61.3932 194.992 67.7695H200.992ZM195.949 49.5326C192.364 44.4672 187.231 41.918 180.902 41.918V47.918C185.381 47.918 188.646 49.6005 191.051 52.9986L195.949 49.5326ZM180.902 41.918C174.365 41.918 169.139 44.3797 165.827 49.5497L170.88 52.7862C172.906 49.6229 176.047 47.918 180.902 47.918V41.918ZM165.818 49.5638C162.78 54.3659 161.398 60.518 161.398 67.7695H167.398C167.398 61.219 168.654 56.3034 170.889 52.7722L165.818 49.5638ZM161.398 67.7695V68.9902H167.398V67.7695H161.398ZM161.398 68.9902C161.398 76.3135 162.815 82.5224 165.928 87.3615L170.974 84.115C168.684 80.5557 167.398 75.5993 167.398 68.9902H161.398ZM165.928 87.3615C169.264 92.5463 174.477 95.0371 181 95.0371V89.0371C176.195 89.0371 173.042 87.3287 170.974 84.115L165.928 87.3615Z" fill="#787878"/>
<path d="M226.703 104V93.9902L234.125 92.4277V46.1875H223.139L222.699 53.8535H209.76V32.9062H275.824V53.8535H262.738L262.348 46.1875H251.264V92.4277L258.686 93.9902V104H226.703Z" fill="#002284"/>
<path d="M226.703 104H223.703V107H226.703V104ZM226.703 93.9902L226.085 91.0546L223.703 91.5561V93.9902H226.703ZM234.125 92.4277L234.743 95.3634L237.125 94.8619V92.4277H234.125ZM234.125 46.1875H237.125V43.1875H234.125V46.1875ZM223.139 46.1875V43.1875H220.306L220.144 46.0158L223.139 46.1875ZM222.699 53.8535V56.8535H225.532L225.694 54.0252L222.699 53.8535ZM209.76 53.8535H206.76V56.8535H209.76V53.8535ZM209.76 32.9062V29.9062H206.76V32.9062H209.76ZM275.824 32.9062H278.824V29.9062H275.824V32.9062ZM275.824 53.8535V56.8535H278.824V53.8535H275.824ZM262.738 53.8535L259.742 54.0062L259.887 56.8535H262.738V53.8535ZM262.348 46.1875L265.344 46.0348L265.199 43.1875H262.348V46.1875ZM251.264 46.1875V43.1875H248.264V46.1875H251.264ZM251.264 92.4277H248.264V94.8619L250.646 95.3634L251.264 92.4277ZM258.686 93.9902H261.686V91.5561L259.304 91.0546L258.686 93.9902ZM258.686 104V107H261.686V104H258.686ZM229.703 104V93.9902H223.703V104H229.703ZM227.321 96.9259L234.743 95.3634L233.507 89.4921L226.085 91.0546L227.321 96.9259ZM237.125 92.4277V46.1875H231.125V92.4277H237.125ZM234.125 43.1875H223.139V49.1875H234.125V43.1875ZM220.144 46.0158L219.704 53.6818L225.694 54.0252L226.134 46.3592L220.144 46.0158ZM222.699 50.8535H209.76V56.8535H222.699V50.8535ZM212.76 53.8535V32.9062H206.76V53.8535H212.76ZM209.76 35.9062H275.824V29.9062H209.76V35.9062ZM272.824 32.9062V53.8535H278.824V32.9062H272.824ZM275.824 50.8535H262.738V56.8535H275.824V50.8535ZM265.734 53.7008L265.344 46.0348L259.352 46.3402L259.742 54.0062L265.734 53.7008ZM262.348 43.1875H251.264V49.1875H262.348V43.1875ZM248.264 46.1875V92.4277H254.264V46.1875H248.264ZM250.646 95.3634L258.068 96.9259L259.304 91.0546L251.882 89.4921L250.646 95.3634ZM255.686 93.9902V104H261.686V93.9902H255.686ZM258.686 101H226.703V107H258.686V101Z" fill="#787878"/>
<path d="M133.817 156.108V154.717L135.617 154.408V141.743L133.817 141.434V140.032H139.592V141.434L137.792 141.743V154.441H143.478L143.732 151.902H145.4V156.108H133.817Z" fill="#4F4F4F"/>
<path d="M147.023 156.108V154.717L148.823 154.408V145.873L147.023 145.564V144.161H150.998V154.408L152.798 154.717V156.108H147.023ZM148.712 141.213V138.883H150.998V141.213H148.712Z" fill="#4F4F4F"/>
<path d="M158.517 156.296C157.634 156.296 156.931 156.039 156.408 155.523C155.893 155.001 155.635 154.169 155.635 153.028V145.773H153.747V144.161H155.635V141.279H157.811V144.161H160.406V145.773H157.811V153.028C157.811 153.602 157.925 154.025 158.153 154.298C158.381 154.57 158.687 154.706 159.069 154.706C159.327 154.706 159.614 154.684 159.931 154.64C160.247 154.588 160.494 154.544 160.671 154.507L160.969 155.932C160.652 156.028 160.262 156.112 159.798 156.186C159.342 156.259 158.915 156.296 158.517 156.296Z" fill="#4F4F4F"/>
<path d="M167.583 156.34C166.479 156.34 165.518 156.09 164.701 155.59C163.884 155.082 163.251 154.379 162.802 153.481C162.36 152.582 162.139 151.545 162.139 150.367V149.881C162.139 148.747 162.371 147.735 162.835 146.844C163.306 145.946 163.928 145.24 164.701 144.724C165.481 144.202 166.331 143.94 167.251 143.94C168.856 143.94 170.071 144.426 170.895 145.398C171.727 146.37 172.143 147.665 172.143 149.285V150.643H164.392L164.358 150.698C164.381 151.846 164.671 152.792 165.231 153.536C165.79 154.272 166.574 154.64 167.583 154.64C168.319 154.64 168.963 154.537 169.515 154.331C170.074 154.117 170.557 153.827 170.961 153.458L171.812 154.872C171.385 155.284 170.818 155.634 170.111 155.921C169.412 156.201 168.569 156.34 167.583 156.34ZM164.458 148.942H169.968V148.655C169.968 147.801 169.74 147.087 169.283 146.513C168.827 145.939 168.149 145.652 167.251 145.652C166.523 145.652 165.901 145.961 165.385 146.579C164.87 147.19 164.554 147.96 164.436 148.887L164.458 148.942Z" fill="#4F4F4F"/>
<path d="M111.146 8.10597V7.45126L111.992 7.30577V1.3458L111.146 1.20031V0.540398H114.622C115.429 0.540398 116.056 0.748243 116.503 1.16393C116.953 1.57963 117.178 2.12695 117.178 2.80591C117.178 3.4918 116.953 4.04086 116.503 4.45309C116.056 4.86531 115.429 5.07143 114.622 5.07143H113.016V7.30577L113.863 7.45126V8.10597H111.146ZM113.016 4.27122H114.622C115.134 4.27122 115.517 4.13439 115.77 3.86073C116.026 3.5836 116.155 3.23546 116.155 2.81631C116.155 2.39715 116.026 2.04728 115.77 1.76669C115.517 1.48609 115.134 1.3458 114.622 1.3458H113.016V4.27122Z" fill="#4F4F4F"/>
<path d="M120.291 8.21509C119.771 8.21509 119.323 8.09385 118.945 7.85136C118.571 7.60541 118.282 7.26766 118.077 6.83811C117.873 6.4051 117.771 5.91147 117.771 5.35721V5.2429C117.771 4.68865 117.873 4.19674 118.077 3.7672C118.282 3.33419 118.571 2.99471 118.945 2.74875C119.323 2.5028 119.768 2.37983 120.28 2.37983C120.8 2.37983 121.247 2.5028 121.621 2.74875C121.999 2.99471 122.289 3.33245 122.494 3.762C122.698 4.19155 122.8 4.68518 122.8 5.2429V5.35721C122.8 5.91493 122.698 6.4103 122.494 6.84331C122.289 7.27286 122 7.60887 121.626 7.85136C121.252 8.09385 120.807 8.21509 120.291 8.21509ZM120.291 7.41488C120.776 7.41488 121.145 7.22089 121.397 6.83292C121.65 6.44494 121.777 5.95304 121.777 5.35721V5.2429C121.777 4.84799 121.72 4.49639 121.605 4.18808C121.494 3.87632 121.328 3.6321 121.107 3.45543C120.885 3.2753 120.609 3.18523 120.28 3.18523C119.955 3.18523 119.681 3.2753 119.459 3.45543C119.238 3.6321 119.071 3.87632 118.961 4.18808C118.85 4.49639 118.794 4.84799 118.794 5.2429V5.35721C118.794 5.95304 118.919 6.44494 119.168 6.83292C119.421 7.22089 119.795 7.41488 120.291 7.41488Z" fill="#4F4F4F"/>
<path d="M125.378 8.10597L123.897 3.21641L123.268 3.14366V2.48375H125.591V3.14366L124.9 3.25798L125.674 6.05869L125.851 6.7238H125.882L126.11 6.05869L127.331 2.48375H128.194L129.358 6.0483L129.607 6.83811H129.639L129.883 6.0483L130.667 3.25278L129.961 3.14366V2.48375H132.231V3.14366L131.608 3.232L130.153 8.10597H129.181L128.043 4.72848L127.773 3.82435L127.742 3.82955L127.477 4.72848L126.256 8.10597H125.378Z" fill="#4F4F4F"/>
<path d="M135.318 8.21509C134.798 8.21509 134.346 8.09731 133.962 7.86175C133.577 7.62273 133.279 7.29191 133.068 6.86929C132.86 6.44667 132.756 5.95823 132.756 5.40398V5.17535C132.756 4.64188 132.865 4.16557 133.084 3.74641C133.305 3.32379 133.598 2.99124 133.962 2.74875C134.329 2.5028 134.729 2.37983 135.162 2.37983C135.917 2.37983 136.489 2.60846 136.877 3.06572C137.268 3.52298 137.464 4.13266 137.464 4.89476V5.53388H133.816L133.801 5.55986C133.811 6.10026 133.948 6.5454 134.211 6.89527C134.474 7.24168 134.843 7.41488 135.318 7.41488C135.664 7.41488 135.967 7.36639 136.227 7.26939C136.491 7.16893 136.717 7.0321 136.908 6.8589L137.308 7.524C137.107 7.71799 136.84 7.88254 136.508 8.01764C136.179 8.14927 135.782 8.21509 135.318 8.21509ZM133.847 4.73368H136.44V4.59858C136.44 4.19674 136.333 3.86073 136.118 3.59053C135.903 3.32033 135.585 3.18523 135.162 3.18523C134.819 3.18523 134.526 3.33072 134.284 3.62171C134.041 3.90922 133.892 4.27122 133.837 4.7077L133.847 4.73368Z" fill="#4F4F4F"/>
<path d="M138.254 8.10597V7.45126L139.101 7.30577V3.28915L138.254 3.14366V2.48375H140.015L140.104 3.20082L140.114 3.29955C140.273 3.01203 140.469 2.78686 140.701 2.62405C140.937 2.46124 141.205 2.37983 141.507 2.37983C141.614 2.37983 141.723 2.39022 141.834 2.41101C141.948 2.42833 142.03 2.44565 142.078 2.46297L141.943 3.41386L141.231 3.37229C140.961 3.35497 140.734 3.41732 140.55 3.55935C140.367 3.69792 140.225 3.88498 140.124 4.12053V7.30577L140.971 7.45126V8.10597H138.254Z" fill="#4F4F4F"/>
<path d="M145.159 8.21509C144.64 8.21509 144.188 8.09731 143.803 7.86175C143.419 7.62273 143.121 7.29191 142.909 6.86929C142.702 6.44667 142.598 5.95823 142.598 5.40398V5.17535C142.598 4.64188 142.707 4.16557 142.925 3.74641C143.147 3.32379 143.439 2.99124 143.803 2.74875C144.17 2.5028 144.571 2.37983 145.004 2.37983C145.759 2.37983 146.33 2.60846 146.718 3.06572C147.11 3.52298 147.305 4.13266 147.305 4.89476V5.53388H143.658L143.642 5.55986C143.653 6.10026 143.789 6.5454 144.053 6.89527C144.316 7.24168 144.685 7.41488 145.159 7.41488C145.506 7.41488 145.809 7.36639 146.069 7.26939C146.332 7.16893 146.559 7.0321 146.749 6.8589L147.15 7.524C146.949 7.71799 146.682 7.88254 146.349 8.01764C146.02 8.14927 145.624 8.21509 145.159 8.21509ZM143.689 4.73368H146.282V4.59858C146.282 4.19674 146.174 3.86073 145.96 3.59053C145.745 3.32033 145.426 3.18523 145.004 3.18523C144.661 3.18523 144.368 3.33072 144.125 3.62171C143.883 3.90922 143.734 4.27122 143.679 4.7077L143.689 4.73368Z" fill="#4F4F4F"/>
<path d="M150.522 8.21509C150.065 8.21509 149.671 8.10251 149.342 7.87734C149.017 7.64871 148.767 7.33175 148.594 6.92645C148.421 6.52115 148.334 6.0483 148.334 5.5079V5.39878C148.334 4.79603 148.421 4.26776 148.594 3.81396C148.767 3.36017 149.018 3.00856 149.347 2.75915C149.677 2.50627 150.071 2.37983 150.532 2.37983C150.865 2.37983 151.157 2.44218 151.41 2.56689C151.667 2.68813 151.885 2.8648 152.065 3.0969V0.805401L151.218 0.659909V0H153.089V7.30577L153.936 7.45126V8.10597H152.2L152.117 7.43567C151.743 7.95528 151.211 8.21509 150.522 8.21509ZM150.782 7.38371C151.086 7.38371 151.343 7.31443 151.551 7.17586C151.758 7.0373 151.93 6.84158 152.065 6.5887V3.98024C151.933 3.74468 151.762 3.55762 151.551 3.41906C151.339 3.28049 151.086 3.21121 150.792 3.21121C150.304 3.21121 149.942 3.41386 149.706 3.81916C149.474 4.22446 149.358 4.751 149.358 5.39878V5.5079C149.358 6.07255 149.474 6.52634 149.706 6.86929C149.938 7.21223 150.297 7.38371 150.782 7.38371Z" fill="#4F4F4F"/>
<path d="M160.28 8.21509C159.556 8.21509 159.012 7.93796 158.649 7.38371L158.555 8.10597H157.672V0.805401L156.825 0.659909V0H158.695V3.14886C158.872 2.89944 159.09 2.70892 159.35 2.57728C159.613 2.44565 159.92 2.37983 160.27 2.37983C160.734 2.37983 161.129 2.50627 161.454 2.75915C161.784 3.00856 162.035 3.36017 162.208 3.81396C162.385 4.26776 162.473 4.79603 162.473 5.39878V5.5079C162.473 6.0483 162.385 6.52115 162.208 6.92645C162.035 7.33175 161.784 7.64871 161.454 7.87734C161.129 8.10251 160.737 8.21509 160.28 8.21509ZM160.02 7.38371C160.502 7.38371 160.859 7.21223 161.091 6.86929C161.326 6.52634 161.444 6.07255 161.444 5.5079V5.39878C161.444 4.751 161.326 4.22446 161.091 3.81916C160.855 3.41386 160.495 3.21121 160.01 3.21121C159.695 3.21121 159.428 3.28742 159.21 3.43984C158.995 3.59226 158.824 3.79664 158.695 4.05298V6.53674C158.824 6.79654 158.997 7.00266 159.215 7.15508C159.437 7.3075 159.705 7.38371 160.02 7.38371Z" fill="#4F4F4F"/>
<path d="M164.364 10.3767C164.285 10.3767 164.181 10.3663 164.053 10.3455C163.924 10.3282 163.826 10.3109 163.756 10.2935L163.86 9.48814C163.919 9.49507 164.001 9.50027 164.105 9.50373C164.208 9.51066 164.279 9.51412 164.318 9.51412C164.536 9.51412 164.712 9.43098 164.848 9.26471C164.986 9.09843 165.114 8.87153 165.232 8.58401L165.476 7.99165L163.486 3.2268L162.883 3.14366V2.48375H165.242V3.14366L164.562 3.24758L165.658 6.05869L165.923 6.79135H165.954L167.253 3.24758L166.536 3.14366V2.48375H168.849V3.14366L168.267 3.2268L166.053 8.96853C165.897 9.37729 165.689 9.71331 165.43 9.97658C165.17 10.2433 164.815 10.3767 164.364 10.3767Z" fill="#4F4F4F"/>
<path d="M171.894 8.10597V7.19665L172.699 7.04076V1.6108L171.894 1.45492V0.540398H175.255C176.146 0.540398 176.84 0.713602 177.339 1.06001C177.838 1.40642 178.087 1.9243 178.087 2.61366C178.087 2.96353 177.994 3.27703 177.807 3.55416C177.623 3.82782 177.355 4.03393 177.001 4.1725C177.455 4.26949 177.795 4.47734 178.02 4.79603C178.248 5.11473 178.363 5.48365 178.363 5.90281C178.363 6.6268 178.124 7.17586 177.646 7.54998C177.168 7.92064 176.49 8.10597 175.614 8.10597H171.894ZM174.216 3.71004H175.307C175.713 3.71004 176.024 3.6269 176.243 3.46063C176.461 3.29435 176.57 3.05186 176.57 2.73317C176.57 2.05074 176.132 1.70953 175.255 1.70953H174.216V3.71004ZM174.216 6.94204H175.614C176.438 6.94204 176.851 6.59563 176.851 5.90281C176.851 5.53215 176.761 5.24983 176.58 5.05584C176.4 4.85839 176.116 4.75966 175.728 4.75966H174.216V6.94204Z" fill="#4F4F4F"/>
<path d="M178.986 8.10597V7.11351L181.439 4.47907C181.809 4.05991 182.066 3.71697 182.208 3.45023C182.35 3.1835 182.421 2.92196 182.421 2.66562C182.421 2.37117 182.336 2.12175 182.166 1.91737C181.997 1.71299 181.751 1.6108 181.428 1.6108C181.079 1.6108 180.814 1.72512 180.633 1.95375C180.453 2.17891 180.363 2.49068 180.363 2.88905H178.888L178.877 2.85787C178.867 2.40408 178.964 1.99358 179.168 1.62639C179.376 1.2592 179.674 0.968213 180.062 0.753439C180.45 0.538666 180.911 0.431279 181.444 0.431279C181.96 0.431279 182.405 0.524809 182.779 0.71187C183.154 0.898931 183.441 1.15874 183.642 1.49129C183.843 1.82038 183.943 2.20316 183.943 2.63964C183.943 2.93755 183.89 3.21987 183.782 3.48661C183.675 3.75334 183.507 4.03393 183.278 4.32838C183.05 4.62283 182.755 4.96058 182.395 5.34163L180.924 6.92125L180.935 6.94723H182.894L182.972 6.22497H184.146V8.10597H178.986Z" fill="#4F4F4F"/>
<path d="M184.78 8.10597V7.19665L185.585 7.04076V1.6108L184.78 1.45492V0.540398H187.83L189.893 5.81447H189.924L191.919 0.540398H194.975V1.45492L194.164 1.6108V7.04076L194.975 7.19665V8.10597H191.841V7.19665L192.688 7.04076V5.59104L192.714 2.17718L192.683 2.17198L190.423 8.00205H189.275L186.962 2.21875L186.931 2.22395L187.019 5.43516V7.04076L187.913 7.19665V8.10597H184.78Z" fill="#4F4F4F"/>
<path d="M0 122.903H305.993V125.566H0V122.903Z" fill="#B4B4B4"/>
<path d="M0 16.3657H305.993V19.0292H0V16.3657Z" fill="#B4B4B4"/>
</svg>
