<svg width="306" height="158" viewBox="0 0 306 158" fill="none" xmlns="http://www.w3.org/2000/svg">
<path d="M133.817 157.003V155.611L135.617 155.302V142.637L133.817 142.328V140.926H139.592V142.328L137.792 142.637V155.335H143.478L143.732 152.796H145.4V157.003H133.817Z" fill="#4F4F4F"/>
<path d="M147.023 157.003V155.611L148.823 155.302V146.767L147.023 146.458V145.055H150.998V155.302L152.798 155.611V157.003H147.023ZM148.712 142.107V139.777H150.998V142.107H148.712Z" fill="#4F4F4F"/>
<path d="M158.517 157.19C157.634 157.19 156.931 156.933 156.408 156.417C155.893 155.895 155.635 155.063 155.635 153.922V146.667H153.747V145.055H155.635V142.173H157.811V145.055H160.406V146.667H157.811V153.922C157.811 154.496 157.925 154.919 158.153 155.192C158.381 155.464 158.687 155.6 159.069 155.6C159.327 155.6 159.614 155.578 159.931 155.534C160.247 155.482 160.494 155.438 160.671 155.401L160.969 156.826C160.652 156.922 160.262 157.006 159.798 157.08C159.342 157.153 158.915 157.19 158.517 157.19Z" fill="#4F4F4F"/>
<path d="M167.583 157.234C166.479 157.234 165.518 156.984 164.701 156.484C163.884 155.976 163.251 155.273 162.802 154.375C162.36 153.477 162.139 152.439 162.139 151.261V150.775C162.139 149.641 162.371 148.629 162.835 147.738C163.306 146.84 163.928 146.134 164.701 145.618C165.481 145.096 166.331 144.834 167.251 144.834C168.856 144.834 170.071 145.32 170.895 146.292C171.727 147.264 172.143 148.559 172.143 150.179V151.537H164.392L164.358 151.592C164.381 152.74 164.671 153.686 165.231 154.43C165.79 155.166 166.574 155.534 167.583 155.534C168.319 155.534 168.963 155.431 169.515 155.225C170.074 155.011 170.557 154.721 170.961 154.353L171.812 155.766C171.385 156.178 170.818 156.528 170.111 156.815C169.412 157.095 168.569 157.234 167.583 157.234ZM164.458 149.836H169.968V149.549C169.968 148.695 169.74 147.981 169.283 147.407C168.827 146.833 168.149 146.546 167.251 146.546C166.523 146.546 165.901 146.855 165.385 147.473C164.87 148.084 164.554 148.854 164.436 149.781L164.458 149.836Z" fill="#4F4F4F"/>
<path d="M111.146 9.00001V8.3453L111.992 8.19981V2.23984L111.146 2.09435V1.43444H114.622C115.429 1.43444 116.056 1.64229 116.503 2.05798C116.953 2.47367 117.178 3.02099 117.178 3.69996C117.178 4.38585 116.953 4.9349 116.503 5.34713C116.056 5.75936 115.429 5.96547 114.622 5.96547H113.016V8.19981L113.863 8.3453V9.00001H111.146ZM113.016 5.16527H114.622C115.134 5.16527 115.517 5.02843 115.77 4.75477C116.026 4.47764 116.155 4.1295 116.155 3.71035C116.155 3.29119 116.026 2.94132 115.77 2.66073C115.517 2.38014 115.134 2.23984 114.622 2.23984H113.016V5.16527Z" fill="#818181"/>
<path d="M120.291 9.10913C119.771 9.10913 119.323 8.98789 118.945 8.7454C118.571 8.49945 118.282 8.1617 118.077 7.73216C117.873 7.29915 117.771 6.80551 117.771 6.25126V6.13694C117.771 5.58269 117.873 5.09079 118.077 4.66124C118.282 4.22823 118.571 3.88875 118.945 3.6428C119.323 3.39685 119.768 3.27387 120.28 3.27387C120.8 3.27387 121.247 3.39685 121.621 3.6428C121.999 3.88875 122.289 4.2265 122.494 4.65604C122.698 5.08559 122.8 5.57922 122.8 6.13694V6.25126C122.8 6.80898 122.698 7.30434 122.494 7.73735C122.289 8.1669 122 8.50292 121.626 8.7454C121.252 8.98789 120.807 9.10913 120.291 9.10913ZM120.291 8.30893C120.776 8.30893 121.145 8.11494 121.397 7.72696C121.65 7.33898 121.777 6.84708 121.777 6.25126V6.13694C121.777 5.74204 121.72 5.39043 121.605 5.08213C121.494 4.77036 121.328 4.52614 121.107 4.34947C120.885 4.16934 120.609 4.07927 120.28 4.07927C119.955 4.07927 119.681 4.16934 119.459 4.34947C119.238 4.52614 119.071 4.77036 118.961 5.08213C118.85 5.39043 118.794 5.74204 118.794 6.13694V6.25126C118.794 6.84708 118.919 7.33898 119.168 7.72696C119.421 8.11494 119.795 8.30893 120.291 8.30893Z" fill="#818181"/>
<path d="M125.378 9.00001L123.897 4.11045L123.268 4.0377V3.3778H125.591V4.0377L124.9 4.15202L125.674 6.95274L125.851 7.61784H125.882L126.11 6.95274L127.331 3.3778H128.194L129.358 6.94234L129.607 7.73216H129.639L129.883 6.94234L130.667 4.14682L129.961 4.0377V3.3778H132.231V4.0377L131.608 4.12604L130.153 9.00001H129.181L128.043 5.62253L127.773 4.7184L127.742 4.72359L127.477 5.62253L126.256 9.00001H125.378Z" fill="#818181"/>
<path d="M135.318 9.10913C134.798 9.10913 134.346 8.99135 133.962 8.7558C133.577 8.51677 133.279 8.18595 133.068 7.76333C132.86 7.34071 132.756 6.85228 132.756 6.29802V6.06939C132.756 5.53592 132.865 5.05961 133.084 4.64046C133.305 4.21784 133.598 3.88528 133.962 3.6428C134.329 3.39685 134.729 3.27387 135.162 3.27387C135.917 3.27387 136.489 3.5025 136.877 3.95976C137.268 4.41702 137.464 5.0267 137.464 5.7888V6.42793H133.816L133.801 6.45391C133.811 6.9943 133.948 7.43944 134.211 7.78931C134.474 8.13572 134.843 8.30893 135.318 8.30893C135.664 8.30893 135.967 8.26043 136.227 8.16344C136.491 8.06298 136.717 7.92615 136.908 7.75294L137.308 8.41805C137.107 8.61203 136.84 8.77658 136.508 8.91168C136.179 9.04331 135.782 9.10913 135.318 9.10913ZM133.847 5.62772H136.44V5.49262C136.44 5.09079 136.333 4.75477 136.118 4.48457C135.903 4.21437 135.585 4.07927 135.162 4.07927C134.819 4.07927 134.526 4.22476 134.284 4.51575C134.041 4.80327 133.892 5.16527 133.837 5.60174L133.847 5.62772Z" fill="#818181"/>
<path d="M138.254 9.00001V8.3453L139.101 8.19981V4.1832L138.254 4.0377V3.3778H140.015L140.104 4.09486L140.114 4.19359C140.273 3.90607 140.469 3.6809 140.701 3.51809C140.937 3.35528 141.205 3.27387 141.507 3.27387C141.614 3.27387 141.723 3.28426 141.834 3.30505C141.948 3.32237 142.03 3.33969 142.078 3.35701L141.943 4.3079L141.231 4.26633C140.961 4.24901 140.734 4.31137 140.55 4.4534C140.367 4.59196 140.225 4.77902 140.124 5.01458V8.19981L140.971 8.3453V9.00001H138.254Z" fill="#818181"/>
<path d="M145.159 9.10913C144.64 9.10913 144.188 8.99135 143.803 8.7558C143.419 8.51677 143.121 8.18595 142.909 7.76333C142.702 7.34071 142.598 6.85228 142.598 6.29802V6.06939C142.598 5.53592 142.707 5.05961 142.925 4.64046C143.147 4.21784 143.439 3.88528 143.803 3.6428C144.17 3.39685 144.571 3.27387 145.004 3.27387C145.759 3.27387 146.33 3.5025 146.718 3.95976C147.11 4.41702 147.305 5.0267 147.305 5.7888V6.42793H143.658L143.642 6.45391C143.653 6.9943 143.789 7.43944 144.053 7.78931C144.316 8.13572 144.685 8.30893 145.159 8.30893C145.506 8.30893 145.809 8.26043 146.069 8.16344C146.332 8.06298 146.559 7.92615 146.749 7.75294L147.15 8.41805C146.949 8.61203 146.682 8.77658 146.349 8.91168C146.02 9.04331 145.624 9.10913 145.159 9.10913ZM143.689 5.62772H146.282V5.49262C146.282 5.09079 146.174 4.75477 145.96 4.48457C145.745 4.21437 145.426 4.07927 145.004 4.07927C144.661 4.07927 144.368 4.22476 144.125 4.51575C143.883 4.80327 143.734 5.16527 143.679 5.60174L143.689 5.62772Z" fill="#818181"/>
<path d="M150.522 9.10913C150.065 9.10913 149.671 8.99655 149.342 8.77138C149.017 8.54275 148.767 8.22579 148.594 7.82049C148.421 7.41519 148.334 6.94234 148.334 6.40195V6.29283C148.334 5.69008 148.421 5.1618 148.594 4.70801C148.767 4.25421 149.018 3.90261 149.347 3.65319C149.677 3.40031 150.071 3.27387 150.532 3.27387C150.865 3.27387 151.157 3.33623 151.41 3.46093C151.667 3.58218 151.885 3.75885 152.065 3.99094V1.69944L151.218 1.55395V0.894043H153.089V8.19981L153.936 8.3453V9.00001H152.2L152.117 8.32971C151.743 8.84932 151.211 9.10913 150.522 9.10913ZM150.782 8.27775C151.086 8.27775 151.343 8.20847 151.551 8.0699C151.758 7.93134 151.93 7.73562 152.065 7.48274V4.87428C151.933 4.63872 151.762 4.45166 151.551 4.3131C151.339 4.17454 151.086 4.10525 150.792 4.10525C150.304 4.10525 149.942 4.3079 149.706 4.7132C149.474 5.1185 149.358 5.64504 149.358 6.29283V6.40195C149.358 6.96659 149.474 7.42039 149.706 7.76333C149.938 8.10628 150.297 8.27775 150.782 8.27775Z" fill="#818181"/>
<path d="M160.28 9.10913C159.556 9.10913 159.012 8.832 158.649 8.27775L158.555 9.00001H157.672V1.69944L156.825 1.55395V0.894043H158.695V4.0429C158.872 3.79349 159.09 3.60296 159.35 3.47133C159.613 3.33969 159.92 3.27387 160.27 3.27387C160.734 3.27387 161.129 3.40031 161.454 3.65319C161.784 3.90261 162.035 4.25421 162.208 4.70801C162.385 5.1618 162.473 5.69008 162.473 6.29283V6.40195C162.473 6.94234 162.385 7.41519 162.208 7.82049C162.035 8.22579 161.784 8.54275 161.454 8.77138C161.129 8.99655 160.737 9.10913 160.28 9.10913ZM160.02 8.27775C160.502 8.27775 160.859 8.10628 161.091 7.76333C161.326 7.42039 161.444 6.96659 161.444 6.40195V6.29283C161.444 5.64504 161.326 5.1185 161.091 4.7132C160.855 4.3079 160.495 4.10525 160.01 4.10525C159.695 4.10525 159.428 4.18146 159.21 4.33388C158.995 4.4863 158.824 4.69069 158.695 4.94703V7.43078C158.824 7.69059 158.997 7.8967 159.215 8.04912C159.437 8.20154 159.705 8.27775 160.02 8.27775Z" fill="#818181"/>
<path d="M164.364 11.2707C164.285 11.2707 164.181 11.2603 164.053 11.2395C163.924 11.2222 163.826 11.2049 163.756 11.1876L163.86 10.3822C163.919 10.3891 164.001 10.3943 164.105 10.3978C164.208 10.4047 164.279 10.4082 164.318 10.4082C164.536 10.4082 164.712 10.325 164.848 10.1588C164.986 9.99247 165.114 9.76558 165.232 9.47806L165.476 8.8857L163.486 4.12084L162.883 4.0377V3.3778H165.242V4.0377L164.562 4.14163L165.658 6.95274L165.923 7.68539H165.954L167.253 4.14163L166.536 4.0377V3.3778H168.849V4.0377L168.267 4.12084L166.053 9.86257C165.897 10.2713 165.689 10.6073 165.43 10.8706C165.17 11.1374 164.815 11.2707 164.364 11.2707Z" fill="#818181"/>
<path d="M171.894 9.00001V8.09069L172.699 7.93481V2.50484L171.894 2.34896V1.43444H175.255C176.146 1.43444 176.84 1.60765 177.339 1.95405C177.838 2.30046 178.087 2.81834 178.087 3.5077C178.087 3.85757 177.994 4.17107 177.807 4.4482C177.623 4.72186 177.355 4.92798 177.001 5.06654C177.455 5.16353 177.795 5.37138 178.02 5.69008C178.248 6.00877 178.363 6.3777 178.363 6.79685C178.363 7.52085 178.124 8.0699 177.646 8.44403C177.168 8.81468 176.49 9.00001 175.614 9.00001H171.894ZM174.216 4.60408H175.307C175.713 4.60408 176.024 4.52094 176.243 4.35467C176.461 4.18839 176.57 3.94591 176.57 3.62721C176.57 2.94478 176.132 2.60357 175.255 2.60357H174.216V4.60408ZM174.216 7.83608H175.614C176.438 7.83608 176.851 7.48967 176.851 6.79685C176.851 6.42619 176.761 6.14387 176.58 5.94988C176.4 5.75243 176.116 5.6537 175.728 5.6537H174.216V7.83608Z" fill="#818181"/>
<path d="M178.986 9.00001V8.00755L181.439 5.37311C181.809 4.95396 182.066 4.61101 182.208 4.34428C182.35 4.07754 182.421 3.816 182.421 3.55966C182.421 3.26521 182.336 3.0158 182.166 2.81142C181.997 2.60704 181.751 2.50484 181.428 2.50484C181.079 2.50484 180.814 2.61916 180.633 2.84779C180.453 3.07296 180.363 3.38472 180.363 3.78309H178.888L178.877 3.75192C178.867 3.29812 178.964 2.88763 179.168 2.52043C179.376 2.15324 179.674 1.86226 180.062 1.64748C180.45 1.43271 180.911 1.32532 181.444 1.32532C181.96 1.32532 182.405 1.41885 182.779 1.60591C183.154 1.79297 183.441 2.05278 183.642 2.38533C183.843 2.71442 183.943 3.0972 183.943 3.53368C183.943 3.83159 183.89 4.11391 183.782 4.38065C183.675 4.64738 183.507 4.92798 183.278 5.22242C183.05 5.51687 182.755 5.85462 182.395 6.23567L180.924 7.81529L180.935 7.84127H182.894L182.972 7.11901H184.146V9.00001H178.986Z" fill="#818181"/>
<path d="M184.78 9.00001V8.09069L185.585 7.93481V2.50484L184.78 2.34896V1.43444H187.83L189.893 6.70852H189.924L191.919 1.43444H194.975V2.34896L194.164 2.50484V7.93481L194.975 8.09069V9.00001H191.841V8.09069L192.688 7.93481V6.48508L192.714 3.07122L192.683 3.06603L190.423 8.89609H189.275L186.962 3.11279L186.931 3.11799L187.019 6.3292V7.93481L187.913 8.09069V9.00001H184.78Z" fill="#818181"/>
<path d="M72.435 105.046C67.8067 105.046 63.6985 104.604 60.1103 103.72C56.5221 102.836 52.9469 101.172 49.3848 98.7278V83.985H59.9543L61.1244 91.5514C61.9564 92.4875 63.4255 93.2805 65.5316 93.9305C67.6377 94.5546 69.9388 94.8666 72.435 94.8666C77.7132 94.8666 80.3524 93.0205 80.3524 89.3283C80.3524 87.6382 79.7023 86.2081 78.4023 85.0381C77.1022 83.842 74.8401 82.6199 71.6159 81.3719C66.7537 79.8118 62.7625 78.2257 59.6423 76.6136C56.5221 75.0016 54.195 73.0905 52.6609 70.8803C51.1529 68.6702 50.3988 65.9271 50.3988 62.6509C50.3988 59.5048 51.2959 56.7616 53.09 54.4215C54.8841 52.0554 57.3542 50.1963 60.5003 48.8442C63.6465 47.4921 67.2477 46.7771 71.3039 46.6991C75.9321 46.5951 80.0273 47.0631 83.5895 48.1032C87.1517 49.1172 90.2979 50.6643 93.028 52.7444V66.4341H82.8875L81.2884 58.8287C80.4044 58.3867 79.1433 57.9837 77.5052 57.6197C75.8671 57.2556 74.125 57.0736 72.2789 57.0736C69.9128 57.0736 67.9497 57.5417 66.3896 58.4777C64.8296 59.4138 64.0495 60.8178 64.0495 62.6899C64.0495 63.704 64.3485 64.614 64.9466 65.4201C65.5446 66.2001 66.5977 66.9931 68.1057 67.7992C69.6138 68.5792 71.7199 69.4893 74.4241 70.5293C80.8724 72.4274 85.7606 74.8065 89.0888 77.6667C92.443 80.5008 94.1201 84.362 94.1201 89.2503C94.1201 92.6045 93.21 95.4646 91.3899 97.8307C89.5698 100.171 87.0347 101.965 83.7845 103.213C80.5344 104.435 76.7512 105.046 72.435 105.046Z" fill="#0B7FE3"/>
<path d="M97.2012 104.227V96.2317L103.091 94.9836V56.7226L97.2012 55.4746V47.4401H124.815C129.339 47.4401 133.265 48.2332 136.593 49.8193C139.921 51.4053 142.483 53.6155 144.277 56.4496C146.097 59.2577 147.007 62.5339 147.007 66.2781C147.007 70.0223 146.097 73.2985 144.277 76.1066C142.483 78.9148 139.921 81.0989 136.593 82.659C133.265 84.219 129.339 84.9991 124.815 84.9991H116.78V94.9836L122.67 96.2317V104.227H97.2012ZM116.78 74.5075H124.815C127.597 74.5075 129.703 73.7535 131.133 72.2454C132.589 70.7113 133.317 68.7482 133.317 66.3561C133.317 63.886 132.589 61.8579 131.133 60.2718C129.703 58.6857 127.597 57.8927 124.815 57.8927H116.78V74.5075Z" fill="#0B7FE3"/>
<path d="M176.726 105.046C172.8 105.046 169.186 104.331 165.884 102.901C162.608 101.445 159.76 99.4168 157.342 96.8167C154.924 94.2165 153.052 91.1744 151.726 87.6902C150.426 84.18 149.776 80.3708 149.776 76.2626V75.3656C149.776 71.2834 150.426 67.5002 151.726 64.016C153.052 60.5318 154.911 57.4897 157.303 54.8895C159.721 52.2894 162.569 50.2613 165.845 48.8052C169.121 47.3491 172.722 46.6211 176.648 46.6211C180.497 46.6211 184.072 47.3491 187.374 48.8052C190.676 50.2613 193.562 52.2894 196.032 54.8895C198.528 57.4897 200.466 60.5318 201.844 64.016C203.222 67.5002 203.911 71.2834 203.911 75.3656V76.2626C203.911 80.3708 203.222 84.18 201.844 87.6902C200.466 91.1744 198.541 94.2165 196.071 96.8167C193.601 99.4168 190.715 101.445 187.413 102.901C184.111 104.331 180.549 105.046 176.726 105.046ZM176.726 94.6716C181.017 94.6716 184.345 92.9945 186.711 89.6403C189.103 86.2601 190.299 81.8009 190.299 76.2626V75.2876C190.299 69.8533 189.103 65.4591 186.711 62.1049C184.319 58.7247 180.965 57.0346 176.648 57.0346C172.098 57.0346 168.757 58.6987 166.625 62.0269C164.519 65.3551 163.466 69.7753 163.466 75.2876V76.2626C163.466 81.8269 164.545 86.2861 166.703 89.6403C168.861 92.9945 172.202 94.6716 176.726 94.6716Z" fill="#0B7FE3"/>
<path d="M220.175 104.227V96.2317L226.103 94.9836V58.0487H217.327L216.976 64.172H206.641V47.4401H259.411V64.172H248.958L248.646 58.0487H239.793V94.9836L245.721 96.2317V104.227H220.175Z" fill="#0B7FE3"/>
<path d="M72.435 105.046C67.8067 105.046 63.6985 104.604 60.1103 103.72C56.5221 102.836 52.9469 101.172 49.3848 98.7278V83.985H59.9543L61.1244 91.5514C61.9564 92.4875 63.4255 93.2805 65.5316 93.9305C67.6377 94.5546 69.9388 94.8666 72.435 94.8666C77.7132 94.8666 80.3524 93.0205 80.3524 89.3283C80.3524 87.6382 79.7023 86.2081 78.4023 85.0381C77.1022 83.842 74.8401 82.6199 71.6159 81.3719C66.7537 79.8118 62.7625 78.2257 59.6423 76.6136C56.5221 75.0016 54.195 73.0905 52.6609 70.8803C51.1529 68.6702 50.3988 65.9271 50.3988 62.6509C50.3988 59.5048 51.2959 56.7616 53.09 54.4215C54.8841 52.0554 57.3542 50.1963 60.5003 48.8442C63.6465 47.4921 67.2477 46.7771 71.3039 46.6991C75.9321 46.5951 80.0273 47.0631 83.5895 48.1032C87.1517 49.1172 90.2979 50.6643 93.028 52.7444V66.4341H82.8875L81.2884 58.8287C80.4044 58.3867 79.1433 57.9837 77.5052 57.6197C75.8671 57.2556 74.125 57.0736 72.2789 57.0736C69.9128 57.0736 67.9497 57.5417 66.3896 58.4777C64.8296 59.4138 64.0495 60.8178 64.0495 62.6899C64.0495 63.704 64.3485 64.614 64.9466 65.4201C65.5446 66.2001 66.5977 66.9931 68.1057 67.7992C69.6138 68.5792 71.7199 69.4893 74.4241 70.5293C80.8724 72.4274 85.7606 74.8065 89.0888 77.6667C92.443 80.5008 94.1201 84.362 94.1201 89.2503C94.1201 92.6045 93.21 95.4646 91.3899 97.8307C89.5698 100.171 87.0347 101.965 83.7845 103.213C80.5344 104.435 76.7512 105.046 72.435 105.046Z" fill="#EDEDED"/>
<path d="M97.2012 104.227V96.2317L103.091 94.9836V56.7226L97.2012 55.4746V47.4401H124.815C129.339 47.4401 133.265 48.2332 136.593 49.8193C139.921 51.4053 142.483 53.6155 144.277 56.4496C146.097 59.2577 147.007 62.5339 147.007 66.2781C147.007 70.0223 146.097 73.2985 144.277 76.1066C142.483 78.9148 139.921 81.0989 136.593 82.659C133.265 84.219 129.339 84.9991 124.815 84.9991H116.78V94.9836L122.67 96.2317V104.227H97.2012ZM116.78 74.5075H124.815C127.597 74.5075 129.703 73.7535 131.133 72.2454C132.589 70.7113 133.317 68.7482 133.317 66.3561C133.317 63.886 132.589 61.8579 131.133 60.2718C129.703 58.6857 127.597 57.8927 124.815 57.8927H116.78V74.5075Z" fill="#EDEDED"/>
<path d="M176.726 105.046C172.8 105.046 169.186 104.331 165.884 102.901C162.608 101.445 159.76 99.4168 157.342 96.8167C154.924 94.2165 153.052 91.1744 151.726 87.6902C150.426 84.18 149.776 80.3708 149.776 76.2626V75.3656C149.776 71.2834 150.426 67.5002 151.726 64.016C153.052 60.5318 154.911 57.4897 157.303 54.8895C159.721 52.2894 162.569 50.2613 165.845 48.8052C169.121 47.3491 172.722 46.6211 176.648 46.6211C180.497 46.6211 184.072 47.3491 187.374 48.8052C190.676 50.2613 193.562 52.2894 196.032 54.8895C198.528 57.4897 200.466 60.5318 201.844 64.016C203.222 67.5002 203.911 71.2834 203.911 75.3656V76.2626C203.911 80.3708 203.222 84.18 201.844 87.6902C200.466 91.1744 198.541 94.2165 196.071 96.8167C193.601 99.4168 190.715 101.445 187.413 102.901C184.111 104.331 180.549 105.046 176.726 105.046ZM176.726 94.6716C181.017 94.6716 184.345 92.9945 186.711 89.6403C189.103 86.2601 190.299 81.8009 190.299 76.2626V75.2876C190.299 69.8533 189.103 65.4591 186.711 62.1049C184.319 58.7247 180.965 57.0346 176.648 57.0346C172.098 57.0346 168.757 58.6987 166.625 62.0269C164.519 65.3551 163.466 69.7753 163.466 75.2876V76.2626C163.466 81.8269 164.545 86.2861 166.703 89.6403C168.861 92.9945 172.202 94.6716 176.726 94.6716Z" fill="#EDEDED"/>
<path d="M220.175 104.227V96.2317L226.103 94.9836V58.0487H217.327L216.976 64.172H206.641V47.4401H259.411V64.172H248.958L248.646 58.0487H239.793V94.9836L245.721 96.2317V104.227H220.175Z" fill="#EDEDED"/>
<path fill-rule="evenodd" clip-rule="evenodd" d="M61.1244 91.5514L59.9543 83.985H49.3848V98.7278C52.9469 101.172 56.5221 102.836 60.1103 103.72C63.6985 104.604 67.8067 105.046 72.435 105.046C76.7512 105.046 80.5344 104.435 83.7845 103.213C86.7035 102.092 89.0457 100.531 90.8112 98.5291C91.0116 98.302 91.2045 98.0692 91.3899 97.8307C91.7823 97.3207 92.1324 96.7876 92.4401 96.2317C93.4 94.4977 93.9485 92.5405 94.0857 90.36C94.1086 89.9963 94.1201 89.6264 94.1201 89.2503C94.1201 84.362 92.443 80.5008 89.0888 77.6667C86.9873 75.8607 84.2638 74.2465 80.9183 72.8241C79.8192 72.3568 78.653 71.9102 77.4196 71.4843C76.4616 71.1535 75.4631 70.8352 74.4241 70.5293C71.7199 69.4893 69.6138 68.5792 68.1057 67.7992C66.5977 66.9931 65.5446 66.2001 64.9466 65.4201C64.3485 64.614 64.0495 63.704 64.0495 62.6899C64.0495 60.8178 64.8296 59.4138 66.3896 58.4777C67.9497 57.5417 69.9128 57.0736 72.2789 57.0736C74.125 57.0736 75.8671 57.2556 77.5052 57.6197C79.1433 57.9837 80.4044 58.3867 81.2884 58.8287L82.8875 66.4341H93.028V52.7444C92.3173 52.2029 91.5783 51.6975 90.8112 51.2282C88.6316 49.8949 86.2244 48.8532 83.5895 48.1032C80.0273 47.0631 75.9321 46.5951 71.3039 46.6991C67.2477 46.7771 63.6465 47.4921 60.5003 48.8442C57.3542 50.1963 54.884 52.0554 53.09 54.4215C51.2959 56.7616 50.3988 59.5048 50.3988 62.6509C50.3988 65.9271 51.1529 68.6702 52.6609 70.8803C54.195 73.0905 56.5221 75.0016 59.6423 76.6136C60.2775 76.9418 60.9489 77.269 61.6563 77.595C62.8923 78.1647 64.2385 78.731 65.6949 79.2941C67.4994 79.9917 69.473 80.6843 71.6159 81.3719C74.8401 82.6199 77.1022 83.842 78.4023 85.0381C79.7023 86.2081 80.3524 87.6382 80.3524 89.3283C80.3524 93.0205 77.7132 94.8666 72.435 94.8666C69.9388 94.8666 67.6377 94.5546 65.5316 93.9305C63.4255 93.2805 61.9564 92.4875 61.1244 91.5514ZM97.2012 55.4746L103.091 56.7226V94.9836L97.2012 96.2317V104.227H122.67V96.2317L116.78 94.9836V84.9991H124.815C129.339 84.9991 133.265 84.219 136.593 82.659C139.412 81.3376 141.681 79.5686 143.399 77.3519C143.672 77.0001 143.931 76.637 144.176 76.2626C144.21 76.2108 144.243 76.1588 144.277 76.1066C144.434 75.8631 144.585 75.6161 144.73 75.3656C146.248 72.7268 147.007 69.6976 147.007 66.2781C147.007 64.8135 146.868 63.4206 146.589 62.0992C146.586 62.0853 146.583 62.0714 146.58 62.0575C146.475 61.5646 146.351 61.0818 146.207 60.6089C145.755 59.124 145.111 57.7376 144.277 56.4496C142.483 53.6155 139.921 51.4053 136.593 49.8193C133.265 48.2332 129.339 47.4401 124.815 47.4401H97.2012V55.4746ZM109.481 53.8301V97.8371H110.39V53.8301H109.481ZM131.133 60.2718C129.703 58.6857 127.597 57.8927 124.815 57.8927H116.78V74.5075H124.815C127.597 74.5075 129.703 73.7535 131.133 72.2454C132.589 70.7113 133.317 68.7482 133.317 66.3561C133.317 63.886 132.589 61.8579 131.133 60.2718ZM137.523 74.3775C139.025 71.9639 139.707 69.2126 139.707 66.3561C139.707 63.4227 139.017 60.5891 137.474 58.1008C138.017 58.6516 138.481 59.2412 138.878 59.8674L138.896 59.8963L138.914 59.9251C139.986 61.578 140.617 63.6158 140.617 66.2781C140.617 68.9404 139.986 70.9782 138.914 72.6311L138.903 72.6487L138.892 72.6663C138.505 73.2719 138.053 73.8431 137.523 74.3775ZM152.936 61.252C152.493 62.1402 152.089 63.0615 151.726 64.016C151.45 64.7565 151.203 65.5106 150.985 66.2781C150.179 69.1218 149.776 72.151 149.776 75.3656V76.2626C149.776 77.2546 149.814 78.2292 149.89 79.1863C150.128 82.193 150.74 85.0276 151.726 87.6902C153.052 91.1744 154.924 94.2165 157.342 96.8167C159.76 99.4168 162.608 101.445 165.884 102.901C169.186 104.331 172.8 105.046 176.726 105.046C180.549 105.046 184.111 104.331 187.413 102.901C190.715 101.445 193.601 99.4168 196.071 96.8167C198.541 94.2165 200.466 91.1744 201.844 87.6902C203.222 84.18 203.911 80.3708 203.911 76.2626V75.3656C203.911 73.7155 203.798 72.1143 203.573 70.562C203.249 68.3311 202.693 66.2011 201.905 64.172C201.885 64.1199 201.864 64.0679 201.844 64.016C201.377 62.8358 200.846 61.7064 200.251 60.6276C199.089 58.5216 197.683 56.6089 196.032 54.8895C193.562 52.2894 190.676 50.2613 187.374 48.8052C184.072 47.3491 180.497 46.6211 176.648 46.6211C172.722 46.6211 169.121 47.3491 165.845 48.8052C162.569 50.2613 159.721 52.2894 157.303 54.8895C155.567 56.7773 154.111 58.8982 152.936 61.252ZM158.704 64.0054C158.34 64.7259 158.007 65.48 157.706 66.2694C156.702 68.9674 156.166 71.9798 156.166 75.3656V76.2626C156.166 79.6763 156.702 82.7178 157.709 85.4449C158.052 86.3427 158.437 87.1951 158.864 88.0044C157.613 84.4315 157.076 80.4644 157.076 76.2626V75.2876C157.076 71.264 157.566 67.456 158.704 64.0054ZM186.711 89.6403C184.345 92.9945 181.017 94.6716 176.726 94.6716C172.202 94.6716 168.861 92.9945 166.703 89.6403C164.545 86.2861 163.466 81.8269 163.466 76.2626V75.2876C163.466 69.7753 164.519 65.3551 166.625 62.0269C168.757 58.6987 172.098 57.0346 176.648 57.0346C180.965 57.0346 184.319 58.7247 186.711 62.1049C189.103 65.4591 190.299 69.8533 190.299 75.2876V76.2626C190.299 81.8009 189.103 86.2601 186.711 89.6403ZM194.938 87.4691C195.286 86.7919 195.606 86.0858 195.898 85.3499C196.957 82.6489 197.521 79.6413 197.521 76.2626V75.3656C197.521 72.0157 196.958 69.0377 195.902 66.3662C195.614 65.6393 195.298 64.9414 194.953 64.2714C196.156 67.6553 196.689 71.3703 196.689 75.2876V76.2626C196.689 80.253 196.154 84.0337 194.938 87.4691ZM206.641 64.172H216.976L217.327 58.0487H226.103V94.9836L220.175 96.2317V104.227H245.721V96.2317L239.793 94.9836V58.0487H248.646L248.958 64.172H259.411V47.4401H206.641V64.172ZM232.493 53.8301V97.8371H233.403V53.8301H232.493ZM58.86 57.4853C58.6128 57.7451 58.3874 58.0111 58.1817 58.2823L58.1715 58.2959L58.1611 58.3094C57.2815 59.4567 56.7888 60.81 56.7888 62.6509C56.7888 64.917 57.2965 66.3271 57.9254 67.2583C58.3423 67.854 58.9328 68.4938 59.7591 69.1518C58.3716 67.249 57.6595 65.0289 57.6595 62.6899C57.6595 60.8149 58.0673 59.0507 58.86 57.4853ZM84.2289 81.95C85.8492 84.0296 86.7424 86.546 86.7424 89.3283C86.7424 91.2746 86.3261 93.1984 85.4158 94.9196C85.7641 94.5966 86.0684 94.2629 86.3353 93.9214C87.1848 92.8112 87.7301 91.37 87.7301 89.2503C87.7301 86.0035 86.7083 84.021 84.9646 82.5476L84.9443 82.5304L84.924 82.513C84.7056 82.3253 84.4741 82.1376 84.2289 81.95ZM55.8134 95.1948L55.7748 95.1513V95.1736C55.7877 95.1807 55.8006 95.1878 55.8134 95.1948Z" fill="#0B7FE3"/>
<path d="M0 123.797H305.993V126.46H0V123.797Z" fill="#B4B4B4"/>
<path d="M0 17.2598H305.993V19.9232H0V17.2598Z" fill="#B4B4B4"/>
</svg>
